<?xml version="1.0" encoding="UTF-8"?> <!-- Generator: Adobe Illustrator 25.0.0, SVG Export Plug-In . SVG Version: 6.00 Build 0) --> <svg xmlns="http://www.w3.org/2000/svg" xmlns:xlink="http://www.w3.org/1999/xlink" version="1.1" id="Calque_1" x="0px" y="0px" viewBox="0 0 208 54" style="enable-background:new 0 0 208 54;" xml:space="preserve"> <style type="text/css"> .st0{fill:#005CB9;stroke:#005CB9;stroke-width:0.2;stroke-miterlimit:10;} .st1{fill:#005CB9;} </style> <g> <path class="st0" d="M63.5,49.1V42l-0.2-0.3h0.9v7.4C64.2,49.1,63.5,49.1,63.5,49.1z"></path> <path class="st0" d="M76.9,49.1v-4.4l-0.2-0.3l0.9-0.3v5H76.9z M77.1,43.3c-0.2,0-0.4-0.2-0.4-0.4c0-0.3,0.3-0.4,0.5-0.4 s0.4,0.2,0.4,0.4C77.6,43.2,77.4,43.3,77.1,43.3z"></path> <path class="st0" d="M82.8,49.2h-0.2c-0.6,0-0.9-0.2-0.9-0.7c-0.4,0.4-1.1,0.8-1.6,0.8c-0.8,0-1.5-0.5-1.5-1.3c0-0.6,0.2-1,0.7-1.3 l0.3-0.2c0.5-0.3,1.3-0.4,2-0.4c0-0.1,0-0.3,0-0.4c0-0.7-0.5-1-1.1-1c-0.4,0-0.9,0.1-1.3,0.3L79,44.6c0.6-0.3,1.1-0.5,1.8-0.5 c0.9,0,1.5,0.4,1.5,1.4V48c0,0.5,0.2,0.7,0.7,0.7L82.8,49.2z M81.5,46.4c-0.5,0-1.4,0.1-1.8,0.3c-0.3,0.2-0.5,0.6-0.5,0.9 c0,0.7,0.6,1.1,1.2,1.1c0.5,0,0.9-0.3,1.1-0.7C81.5,48,81.5,46.4,81.5,46.4z"></path> </g> <g> <path class="st1" d="M30.5,49.9c-12,0-21.8-9.8-21.8-21.8S18.5,6.3,30.5,6.3s21.8,9.8,21.8,21.8C52.3,40.2,42.5,49.9,30.5,49.9z M30.5,7.5c-11.4,0-20.7,9.3-20.7,20.7s9.3,20.7,20.7,20.7s20.7-9.3,20.7-20.7S41.9,7.5,30.5,7.5z"></path> <path class="st1" d="M13.5,52.7L9.4,51c0,0,5.7-11.1,17.8-15.6c9.8-3.6,19.2-2,26.9,2.8c0,0-14-7.4-28.8,2.1 c-6.9,4.4-11,11.5-11,11.5"></path> <path class="st1" d="M24.8,37.6c0.4-0.7,2-2.6,3.4-5.1c2.7-4.8,5.3-8.9,5.7-17.6c0.3-8.5-2.4-14.2-2.2-14.2c0.1,0-3.8,6.8-4.3,14.2 c-0.5,7,0.2,6-0.4,12.9C26.6,31.9,24.8,37.6,24.8,37.6"></path> </g> <g> <polyline class="st1" points="71.6,15.9 71.6,18.8 66.2,18.8 66.2,38.1 62.9,38.1 62.9,18.8 57.5,18.8 57.5,15.9 71.6,15.9 "></polyline> <polyline class="st1" points="77.1,38 74.2,38 74.2,23.1 73.5,21.8 77.1,20.8 77.1,38 "></polyline> <path class="st1" d="M101.6,38h-2.9V26.4c0-1-0.3-1.8-1-2.5c-0.7-0.6-1.5-1-2.5-1c-1.4,0-2.5,0.7-3.3,2.1v13H89V26.4 c0-1-0.3-1.8-1-2.5c-0.7-0.6-1.5-1-2.5-1c-1.4,0-2.5,0.7-3.3,2.1v13h-2.9V23.1l-0.7-1.3l3.6-1v2.4c0.6-0.7,1.4-1.2,2.3-1.7 c1-0.5,1.9-0.7,2.8-0.7s1.8,0.2,2.6,0.7c0.8,0.5,1.3,1.1,1.6,2c0.5-0.6,1.3-1.3,2.7-2c0.9-0.5,1.8-0.7,2.8-0.7 c1.4,0,2.5,0.4,3.4,1.3s1.3,2,1.3,3.4L101.6,38"></path> <path class="st1" d="M118.6,36.1l-0.8,2h-1c-1.9,0-3-0.8-3.3-2.4c-0.6,0.7-1.5,1.3-2.5,1.8c-1.1,0.6-2.1,0.9-2.9,0.9 c-1.4,0-2.6-0.4-3.6-1.2s-1.5-1.9-1.5-3.3c0-1.9,0.8-3.4,2.5-4.4l1.4-0.8c1.4-0.8,3.5-1.3,6.3-1.4c0-0.3,0-0.7-0.1-1.3 c-0.1-1-0.5-1.8-1.2-2.3s-1.5-0.7-2.6-0.7c-1.5,0-3,0.4-4.3,1.1l-0.5-1.3c2.4-1.3,4.5-2,6.4-2c1.5,0,2.8,0.4,3.7,1.2 c1,0.8,1.4,2,1.4,3.5v8.3c0,0.9,0.2,1.6,0.5,1.9C117.1,36,117.7,36.1,118.6,36.1 M113.3,34.2v-5.1c-2.9,0-4.9,0.4-5.8,0.9 c-0.9,0.6-1.4,1.6-1.4,3c0,1,0.4,1.9,1.1,2.5c0.8,0.6,1.7,0.9,2.7,0.9C111.2,36.4,112.3,35.6,113.3,34.2z"></path> <path class="st1" d="M132.6,36.6c-1.3,0.7-2.2,1.2-2.8,1.4c-0.9,0.3-1.9,0.4-3.1,0.4c-2.4,0-4.4-0.8-6.1-2.4 c-1.7-1.6-2.5-3.6-2.5-6c0-1.5,0.4-2.9,1.1-4.2c0.7-1.3,1.8-2.3,3.1-3.1l1.3-0.8c1.4-0.8,2.8-1.2,4.4-1.2c1.6,0,3.1,0.3,4.5,1 l-1,2.4c-1.4-0.9-3-1.3-4.8-1.3c-1.2,0-2.1,0.2-2.8,0.6c-0.9,0.6-1.6,1.4-2.2,2.4c-0.5,1-0.8,2.1-0.8,3.2c0,1.9,0.7,3.6,2.1,5 s3,2.1,5,2.1c1.7,0,3.2-0.4,4.5-1.1L132.6,36.6"></path> <path class="st1" d="M76.9,17.7c0,1-0.8,1.8-1.8,1.8s-1.8-0.8-1.8-1.8s0.8-1.7,1.8-1.7C76.1,15.9,76.9,16.7,76.9,17.7"></path> <path class="st1" d="M153.7,38h-2.2l-2.4-5.5h-7.4l-2,4.6L140,38h-2.5l7.1-15.8l-0.4-0.9h2.2L153.7,38 M148.3,31.1l-3.1-7l-3.1,7 H148.3z"></path> <path class="st1" d="M168.2,35.7c-0.4,0.3-1.1,0.7-2,1.2c-1.7,1-3.6,1.5-5.6,1.5c-2.4,0-4.4-0.8-6.1-2.5c-1.7-1.6-2.5-3.6-2.5-6 c0-1.5,0.4-3,1.1-4.3c0.8-1.3,1.8-2.3,3.1-3.1l0.9-0.5c1.4-0.8,2.8-1.2,4.3-1.2c2.2,0,4.1,0.6,5.9,1.8l-0.7,1.9 c-1.8-1.4-3.8-2.1-6-2.1c-1.3,0-2.4,0.3-3.2,0.8c-1,0.6-1.9,1.5-2.4,2.6c-0.6,1.1-0.9,2.3-0.9,3.6c0,2.1,0.7,3.8,2.2,5.3 s3.2,2.2,5.3,2.2c1.4,0,2.7-0.3,3.9-0.9c0.2-0.1,0.4-0.2,0.7-0.4v-4.3H160l0.6-1.5h7.7v5.9"></path> <path class="st1" d="M181.7,38h-2.6l-5.5-6.8H172V38h-2.1V22.2l-0.5-0.9h6.1c1.3,0,2.5,0.5,3.4,1.4s1.4,2,1.4,3.4 c0,1.8-0.8,3.1-2.3,4.1c-0.8,0.5-1.5,0.7-2.2,0.7L181.7,38 M178.2,26.6c0-1-0.4-1.9-1.1-2.6c-0.7-0.7-1.6-1.1-2.6-1.1H172v6.9h3.4 c0.6,0,1-0.1,1.4-0.3c0.4-0.3,0.8-0.7,1.1-1.3C178.1,27.6,178.2,27.1,178.2,26.6z"></path> <path class="st1" d="M199,29.4c0,1.5-0.4,2.9-1.1,4.2c-0.7,1.3-1.8,2.3-3.1,3.1c-1.9,1.1-3.7,1.7-5.2,1.7c-2.4,0-4.4-0.8-6.1-2.5 c-1.7-1.6-2.5-3.6-2.5-6c0-1.5,0.4-2.9,1.1-4.2c0.7-1.3,1.8-2.3,3.1-3.1c1-0.6,1.8-1,2.5-1.2c0.8-0.3,1.8-0.5,2.8-0.5 c2.4,0,4.4,0.8,6,2.5C198.2,25,199,27,199,29.4 M196.9,29.9c0-2.1-0.7-3.8-2.1-5.3c-1.4-1.5-3.1-2.2-5.2-2.2 c-1.3,0-2.4,0.3-3.2,0.8c-1,0.6-1.8,1.5-2.4,2.7c-0.5,1.1-0.8,2.3-0.8,3.5c0,2.1,0.7,3.8,2.1,5.3c1.4,1.5,3.2,2.2,5.2,2.2 c1.3,0,2.3-0.3,3.2-0.8c1-0.6,1.8-1.5,2.4-2.7C196.6,32.4,196.9,31.2,196.9,29.9z"></path> </g> <path class="st0" d="M65.5,44.3l0.9-0.2v0.8c0.4-0.4,1.2-0.8,1.8-0.8c0.9,0,1.6,0.6,1.6,1.6v3.5h-0.7V46c0-0.8-0.6-1.3-1.3-1.3 c-0.6,0-1,0.3-1.4,0.7v3.8h-0.7v-4.5L65.5,44.3"></path> <path class="st0" d="M74.7,49.1v-0.5c-0.5,0.4-1,0.6-1.6,0.6c-1.4,0-2.4-1.1-2.4-2.5c0-0.9,0.4-1.7,1.2-2.2l0.3-0.2 c0.4-0.2,0.8-0.3,1.2-0.3c0.5,0,0.9,0.1,1.3,0.4v-2.3l-0.2-0.3l0.9-0.3V49L74.7,49.1L74.7,49.1z M74.7,45.3 c-0.4-0.4-0.9-0.7-1.5-0.7c-0.3,0-0.6,0-0.9,0.2c-0.6,0.4-0.9,1.1-0.9,1.8c0,1.2,0.9,2.2,2.1,2.2c0.4,0,0.9-0.2,1.2-0.5 C74.7,48.3,74.7,45.3,74.7,45.3z"></path> </svg> 